<svg width="659" height="258" viewBox="0 0 659 258" fill="none" xmlns="http://www.w3.org/2000/svg">
<path d="M296.188 130.303C307.662 119.163 319.494 109.106 333.586 102.033C334.727 101.46 335.75 100.6 336.719 99.7484C342.639 94.5409 348.473 89.234 354.444 84.0849C359.779 79.4836 362.124 71.7852 359.966 65.1401C358.673 61.1572 357.204 57.2253 356.069 53.1988C354.99 49.3697 352.231 48.135 348.745 48.0237C331.915 47.4862 315.579 44.3425 299.495 39.414C296.133 38.3835 292.237 39.0742 288.587 39.003C281.61 38.8669 279.328 35.2526 282.336 29.3829C286.158 27.5714 293.44 32.591 293.041 22.9444C293.993 23.7177 294.749 24.1018 295.178 24.715C301.482 33.7308 310.978 34.4465 320.779 35.0881C333.848 35.9437 346.064 33.4018 357.761 27.6971C361.473 25.8868 361.341 23.929 359.566 18.8069C358.285 15.1103 358.064 10.4929 359.028 6.70896C360.295 1.73896 366 -0.362159 370.684 1.23695C375.222 2.78674 377.999 8.23298 376.98 13.8277C376.403 16.9893 375.63 20.115 374.823 23.8198C384.845 23.6841 390.659 30.8884 396.948 36.6949C403.779 43.0021 411.35 47.6353 419.893 50.9516C422.579 51.9944 424.782 52.2965 426.074 48.7947C426.661 47.2053 428.251 45.9862 429.386 44.5991C429.969 44.7088 430.553 44.8186 431.137 44.9283C431.592 49.4716 432.046 54.0148 432.491 58.4548C420.938 60.8569 411.108 57.1154 401.231 53.6642C400.171 53.2935 399.121 52.8884 398.049 52.5541C392.802 50.9175 390.795 52.1385 391.079 57.5514C391.444 64.5395 388.092 72.019 393.009 78.4172C395.222 81.2966 398.102 83.8387 401.115 85.8954C409.785 91.8135 418.965 97.0161 427.402 103.236C435.976 109.557 444.4 116.255 451.948 123.738C457.323 129.066 462.675 129.634 469.28 127.984C472.335 127.22 475.556 127.12 478.949 127.344C473.382 136.871 463.658 140.975 455.105 147.48C449.544 133.701 436.976 128.667 425.745 121.956C410.697 112.964 394.256 107.183 378.197 100.445C370.369 97.1616 365.469 101.748 359.927 104.725C348.475 110.878 337.294 117.536 326.039 124.051C319.049 128.096 312.064 132.157 305.221 136.44C303.52 137.505 302.158 139.314 301.019 141.032C297.351 146.562 291.208 146.478 285.8 147.404C283.484 147.801 280.124 146.154 278.29 144.361C275.503 141.636 276.948 138.564 280.886 136.975C285.94 134.935 290.92 132.712 296.188 130.303Z" fill="#AB2521"/>
<path d="M383.825 133C394.727 135.643 405.503 137.352 415.5 141.125C435.966 148.85 454.574 160.308 472.822 172.289C474.164 173.17 475.724 173.714 477.088 174.567C478.39 175.382 479.567 176.395 480.799 177.322C480.598 177.898 480.397 178.474 480.195 179.05C474.902 177.616 469.25 176.935 464.378 174.616C443.074 164.474 421.277 155.591 398.069 151.241C381 148.043 363.811 149.598 347.019 154.504C326.479 160.506 306.016 166.83 285.288 172.104C274.809 174.771 263.831 176.708 253.06 176.797C169.515 177.487 85.965 177.645 2.4166 177.955C2.1118 177.956 1.80633 177.777 1.25494 177.605C1.25494 176.275 1.25494 174.879 1.25494 173.204C2.2528 173.135 3.21308 173.009 4.1734 173.009C42.3257 172.999 80.4785 173.109 118.63 172.956C138.382 172.877 158.136 172.495 177.881 171.944C191.223 171.572 204.614 171.264 217.871 169.861C238.091 167.723 258.416 165.665 278.304 161.637C291.261 159.013 303.463 152.781 316.11 148.48C330.264 143.665 344.372 138.553 358.829 134.854C366.648 132.854 375.152 133.531 383.825 133Z" fill="#762420"/>
<path d="M335.871 187C351.813 189.736 363.456 201.941 365.09 217.269C367.248 237.51 355.987 251.925 337.158 256.831C323.814 260.308 306.72 252.461 300.128 240.455C291.756 225.206 293.084 210.598 304.368 197.477C309.544 191.459 316.876 187.906 325.034 187.059C328.466 186.703 331.965 187 335.871 187ZM310.932 212.545C308.049 216.827 308.001 221.526 309.015 226.327C311.319 237.227 320.656 244.148 330.918 243.834C341.918 243.498 350.303 235.261 351.908 224.993C353.407 215.402 347.437 204.061 335.567 200.751C326.984 198.358 315.716 202.66 310.932 212.545Z" fill="black"/>
<path d="M439.255 200.246C444.34 192.379 451.892 188.64 460.196 187.166C471.013 185.245 481.104 187.659 489.865 194.933C496.808 200.696 500.674 208.125 501.892 216.736C503.468 227.881 500.561 238.17 492.794 246.429C487.308 252.262 480.255 256.009 472.145 256.955C460.95 258.259 450.656 255.54 442.487 247.698C436.49 241.94 432.556 234.655 432.009 226.023C431.42 216.73 432.416 207.849 439.255 200.246ZM487.003 213.687C483.791 206.068 477.975 201.272 469.971 200.131C460.415 198.769 452.863 202.985 448.049 211.202C442.916 219.965 443.987 227.634 449.769 235.01C455.38 242.167 463.103 245.535 472.577 243.011C484.881 239.733 493.095 223.753 487.003 213.687Z" fill="black"/>
<path d="M8.99868 232.065C6.13668 217.607 3.276 203.588 0.339478 189.197C4.28881 189.197 7.24519 189.197 10.8454 189.197C13.2031 202.179 15.6035 215.395 18.0038 228.61C18.1872 228.574 18.3707 228.537 18.5542 228.5C20.4575 215.558 22.3608 202.616 24.3158 189.323C27.1382 189.323 30.2186 189.323 34.0702 189.323C36.0143 202.2 38.004 215.379 39.9936 228.558C40.18 228.535 40.3663 228.512 40.5526 228.489C42.822 215.519 45.0914 202.548 47.4148 189.27C50.7181 189.27 54.2982 189.27 58.0657 189.27C53.6542 211.24 49.28 233.024 44.8938 254.868C41.5839 254.868 38.6145 254.868 34.9161 254.868C33.136 242.145 31.3453 229.346 29.5545 216.547C29.3349 216.496 29.1152 216.446 28.8955 216.395C27.1128 229.094 25.33 241.792 23.5096 254.759C20.3263 254.759 16.9028 254.759 13.431 254.759C11.9502 247.321 10.4751 239.913 8.99868 232.065Z" fill="black"/>
<path d="M259.98 230.76C258.976 236.789 257.813 242.34 257.046 247.945C256.077 255.026 256.216 255.044 249.397 255.001C248.418 254.995 247.439 255 246.314 255C241.902 232.987 237.537 211.203 233.129 189.211C236.593 189.211 240.03 189.211 243.645 189.211C245.91 202.035 248.175 214.856 250.439 227.677C250.727 227.725 251.015 227.774 251.302 227.822C253.245 214.985 255.187 202.147 257.15 189.173C260.312 189.173 263.277 189.173 266.853 189.173C268.698 201.663 270.57 214.328 272.441 226.994C272.808 227.013 273.175 227.032 273.542 227.051C275.763 214.485 277.984 201.919 280.234 189.186C283.755 189.186 287.21 189.186 290.75 189.186C286.419 211.103 282.106 232.927 277.811 254.659C277.27 254.808 276.96 254.966 276.648 254.969C266.553 255.076 266.798 255.056 265.914 242.871C265.326 234.77 263.933 226.727 262.824 218.669C262.753 218.15 262.03 217.721 261.324 216.931C260.853 221.676 260.425 225.992 259.98 230.76Z" fill="black"/>
<path d="M373.135 189C378.064 188.63 380.804 188.646 381.368 195.104C382.376 206.631 385.424 217.98 387.665 229.643C389.457 218.104 391.595 206.74 392.823 195.278C393.326 190.571 394.291 188.159 399.376 188.969C400.666 189.175 402.016 189 403.635 189C405.569 202.557 407.489 216.018 409.598 230.798C411.871 217.4 414.008 205.239 415.95 193.047C416.414 190.131 417.436 188.608 420.618 188.96C422.572 189.176 424.57 189 427.314 189C426.055 195.834 424.957 202.287 423.665 208.701C420.83 222.775 417.694 236.792 415.153 250.917C414.569 254.168 413.67 255.283 410.573 255.03C408.601 254.869 406.605 255 404.348 255C402.496 241.749 400.662 228.629 398.827 215.509C398.684 215.514 398.541 215.519 398.397 215.524C396.56 228.575 394.723 241.627 392.901 254.572C392.355 254.762 392.053 254.956 391.747 254.961C382.322 255.127 382.651 255.062 380.931 245.861C377.609 228.099 373.893 210.411 370.292 192.702C369.855 190.552 369.386 188.635 373.135 189Z" fill="black"/>
<path d="M152 235C152 219.533 152 204.565 152 189.032C158.768 189.032 165.623 187.883 171.883 189.323C179.754 191.133 184.063 197.326 185.289 205.657C186.888 216.514 186.793 226.785 178.365 235.277C181.035 241.639 183.718 248.033 186.397 254.42C185.642 254.727 185.491 254.835 185.333 254.846C176.343 255.505 175.871 255.692 171.235 244.028C169.276 239.098 166.701 238.481 162 239.25C162 241.781 162 244.399 162 247.017C162 249.492 162 251.967 162 254.72C158.71 254.72 155.637 254.72 152 254.72C152 248.364 152 241.932 152 235ZM166.312 229C171.241 229.828 173.861 226.904 174.864 222.826C175.785 219.076 175.914 215.073 175.95 211.177C176.04 201.529 171.824 198.035 162.001 199.561C162.001 208.483 162.116 217.452 161.936 226.414C161.876 229.398 163.567 229.063 166.312 229Z" fill="black"/>
<path d="M204.537 248.224C203.652 250.461 203.181 252.503 202.653 254.788C199.71 254.788 196.603 254.788 192.831 254.788C194.272 247.972 195.492 241.259 197.129 234.649C200.638 220.483 204.614 206.427 207.846 192.2C208.824 187.897 211.424 189.155 213.775 189.051C216.113 188.947 218.249 188.391 219.153 192.246C223.693 211.604 228.754 230.84 233.588 250.13C233.939 251.534 233.938 253.026 234.131 254.75C230.776 254.75 227.676 254.75 224.288 254.75C223.757 252.729 223.195 250.593 222.52 248.029C216.864 248.029 210.907 248.029 204.537 248.224ZM214.972 213.835C214.473 212.351 213.975 210.868 213.414 209.199C211.253 218.792 209.128 228.221 207.014 237.607C211.615 237.607 215.775 237.607 220.002 237.607C218.277 229.703 216.638 222.194 214.972 213.835Z" fill="black"/>
<path d="M139.819 201.51C142.902 211.03 142.64 219.94 138.714 228.843C135.453 236.236 129.812 239.144 122.12 239.003C120.958 238.982 119.797 239 118.245 239C118.245 244.17 118.245 249.258 118.245 254.672C114.8 254.672 111.725 254.672 108.32 254.672C108.32 233.134 108.32 211.39 108.32 189.632C128.151 188.186 133.404 187.428 139.819 201.51ZM128.548 202.03C125.974 198.107 122.141 198.903 118.318 199.156C118.318 209.195 118.318 219.063 118.318 228.919C127.705 229.137 129.181 227.932 131.078 220.855C132.808 214.401 132.049 208.45 128.548 202.03Z" fill="black"/>
<path d="M515.974 164.961C542.364 173.172 563.237 188.119 577.474 211.968C572.17 208.339 566.906 204.649 561.555 201.091C546.202 190.885 530.474 181.42 512.088 177.641C506.858 176.566 501.518 174.99 496.286 175.182C485.394 175.581 475.692 173.373 467.716 165.786C479.95 160.165 499.376 160.045 515.974 164.961Z" fill="#75231F"/>
<path d="M614.342 230.18C609.878 238.871 602.116 238.337 594.135 237.87C594.135 243.309 594.135 248.393 594.135 253.733C591.014 253.733 588.276 253.733 585.266 253.733C585.266 232.031 585.266 210.297 585.266 187.605C592.08 188.074 599.037 187.839 605.661 189.21C612.137 190.55 615.351 196.459 616.821 202.288C619.161 211.567 619.09 221.003 614.342 230.18ZM596.455 229C605.176 230.726 609.741 222.294 608.8 211.842C607.995 202.893 606.473 195.928 594.016 198.408C594.016 208.066 593.995 217.813 594.081 227.558C594.085 228.041 595.028 228.516 596.455 229Z" fill="black"/>
<path d="M62.0048 190.785C67.1996 187.042 71.475 188.588 73.0459 194.231C75.4936 203.022 78.0288 211.789 80.4536 220.309C82.885 211.499 85.8136 202.522 87.6841 193.329C88.4632 189.5 89.8268 188.685 93.1182 188.972C94.9217 189.129 96.75 189 98.6544 189C95.1523 211.234 83.0602 231.385 85.0175 254.728C81.6938 254.728 78.6225 254.728 75.2258 254.728C75.1544 253.855 74.924 252.895 75.0234 251.971C76.3288 239.836 72.9854 228.445 69.5629 217.051C66.983 208.461 64.5183 199.837 62.0048 190.785Z" fill="black"/>
<path d="M629 208C629 201.19 629 194.88 629 188.286C632.281 188.286 635.355 188.286 639 188.286C639 197.632 639 207.067 639 216.501C639 225.81 639 235.119 639 244.828C645.616 244.828 652.026 244.828 658.715 244.828C658.715 247.954 658.715 250.693 658.715 253.719C649.057 253.719 639.314 253.719 629 253.719C629 238.688 629 223.594 629 208Z" fill="black"/>
</svg>
