<svg width="12" height="12" viewBox="0 0 12 12" fill="none" xmlns="http://www.w3.org/2000/svg">
<path d="M5 6C5 6.26522 5.10536 6.51957 5.29289 6.70711C5.48043 6.89464 5.73478 7 6 7C6.26522 7 6.51957 6.89464 6.70711 6.70711C6.89464 6.51957 7 6.26522 7 6C7 5.73478 6.89464 5.48043 6.70711 5.29289C6.51957 5.10536 6.26522 5 6 5C5.73478 5 5.48043 5.10536 5.29289 5.29289C5.10536 5.48043 5 5.73478 5 6Z" stroke="#043AC6" stroke-width="0.65" stroke-linecap="round" stroke-linejoin="round"/>
<path d="M10.5 6C9.3 8 7.8 9 6 9C4.2 9 2.7 8 1.5 6C2.7 4 4.2 3 6 3C7.8 3 9.3 4 10.5 6Z" stroke="#043AC6" stroke-width="0.65" stroke-linecap="round" stroke-linejoin="round"/>
</svg>
