<svg width="35" height="39" viewBox="0 0 35 39" fill="none" xmlns="http://www.w3.org/2000/svg">
<path d="M21.6906 32.625C23.3125 32.625 24.1694 34.545 23.0875 35.7525C22.3841 36.5382 21.5229 37.1668 20.5601 37.5971C19.5973 38.0275 18.5546 38.2499 17.5 38.25C16.4454 38.2499 15.4027 38.0275 14.4399 37.5971C13.4771 37.1668 12.6159 36.5382 11.9125 35.7525C10.8775 34.5975 11.6163 32.7919 13.1013 32.6381L13.3075 32.6269L21.6906 32.625ZM17.5 0.75C20.0463 0.75 22.1988 2.44312 22.8906 4.76437L22.9769 5.085L22.9919 5.16563C25.0592 6.33134 26.8208 7.97037 28.1323 9.94837C29.4438 11.9264 30.2678 14.187 30.5369 16.545L30.5894 17.0831L30.625 17.625V23.1206L30.6644 23.3756C30.9211 24.7572 31.6857 25.9926 32.8075 26.8387L33.1206 27.0581L33.4244 27.2437C35.0369 28.1569 34.4744 30.555 32.7175 30.7387L32.5 30.75H2.50002C0.572523 30.75 -0.100602 28.1925 1.57565 27.2437C2.29008 26.8394 2.90736 26.2837 3.38416 25.6154C3.86096 24.9472 4.18572 24.1827 4.33565 23.3756L4.37502 23.1075L4.3769 17.5388C4.49122 15.0898 5.20407 12.7061 6.45306 10.5965C7.70204 8.48686 9.44909 6.71551 11.5413 5.4375L12.0063 5.16375L12.025 5.08312C12.2895 3.96155 12.8921 2.94827 13.7512 2.18034C14.6104 1.4124 15.6847 0.926852 16.8288 0.789375L17.17 0.7575L17.5 0.75Z" fill="#E9E9E9"/>
</svg>
