<svg width="29" height="29" viewBox="0 0 29 29" fill="none" xmlns="http://www.w3.org/2000/svg">
<path d="M27.25 27.25L18.5 18.5M1 11.2083C1 12.5489 1.26405 13.8764 1.77706 15.1149C2.29008 16.3534 3.04202 17.4788 3.98995 18.4267C4.93788 19.3746 6.06324 20.1266 7.30177 20.6396C8.54031 21.1526 9.86776 21.4167 11.2083 21.4167C12.5489 21.4167 13.8764 21.1526 15.1149 20.6396C16.3534 20.1266 17.4788 19.3746 18.4267 18.4267C19.3746 17.4788 20.1266 16.3534 20.6396 15.1149C21.1526 13.8764 21.4167 12.5489 21.4167 11.2083C21.4167 9.86776 21.1526 8.54031 20.6396 7.30177C20.1266 6.06324 19.3746 4.93788 18.4267 3.98995C17.4788 3.04202 16.3534 2.29008 15.1149 1.77706C13.8764 1.26405 12.5489 1 11.2083 1C9.86776 1 8.54031 1.26405 7.30177 1.77706C6.06324 2.29008 4.93788 3.04202 3.98995 3.98995C3.04202 4.93788 2.29008 6.06324 1.77706 7.30177C1.26405 8.54031 1 9.86776 1 11.2083Z" stroke="black" stroke-width="1.65" stroke-linecap="round" stroke-linejoin="round"/>
</svg>
